<svg width="81" height="81" viewBox="0 0 81 81" fill="none" xmlns="http://www.w3.org/2000/svg">
<path d="M12.5616 39.9712L28.8591 49.9532L34.9126 44.1667L19.496 20.1464L35.8744 43.2441L45.8957 33.6684L36.0364 12.1186L46.8942 32.7141L56.2852 23.7357L57.1382 7.43829L57.5976 22.4828L78.4222 2.57956C78.4222 2.57956 31.4852 0.863374 14.4601 17.8886C14.1588 18.1872 13.9019 18.4745 13.6146 18.7682C16.1231 20.3742 17.7621 22.9903 17.7621 25.9544C17.7621 30.8435 13.3172 34.8036 7.83704 34.8036C6.27278 34.8054 4.72651 34.47 3.30357 33.8202C-1.2223 47.913 15.3409 52.8299 21.526 56.9609L27.9162 50.853L12.5616 39.9712Z" fill="#C6DDA8"/>
<path d="M77.5092 24.947C78.7824 12.5413 78.4217 2.57959 78.4217 2.57959L58.5172 23.4004L73.5617 23.8573L57.2592 24.7116L48.2834 34.1076L68.8764 44.959L47.3266 35.1011L37.7496 45.1223L60.8523 61.497L36.8282 46.0842L31.0418 52.1364L41.0263 68.4326L30.1444 53.0768L24.0378 59.4644C29.4433 67.5644 36.1954 93.4489 63.1114 66.5354C68.3448 61.3008 71.8025 53.2413 74.0895 44.587C72.4682 43.2239 71.5114 41.4988 71.5607 39.6422C71.5785 39.0511 71.7038 38.4778 71.9113 37.931C69.5459 36.4794 68.0752 34.3835 68.1372 32.0927C68.2347 28.3971 72.2733 25.4431 77.5092 24.947ZM21.5268 56.961L12.1877 65.8861L15.1075 68.8047L24.0378 59.4644C23.6644 58.9062 23.2974 58.4316 22.9316 58.0659C22.5659 57.7001 22.0849 57.3331 21.5268 56.961Z" fill="#C6DDA8"/>
</svg>
